<svg width="162" height="50" viewBox="0 0 162 50" fill="none" xmlns="http://www.w3.org/2000/svg">
<path d="M11.2342 22.0146C10.3561 22.0146 9.45857 22.1463 8.5415 22.4098C7.62442 22.6732 6.68784 23.0878 5.73174 23.6537L6.93174 34.0146H17.7317L18.961 23.2146H18.8439C18.1025 23.2146 17.3805 23.1561 16.6781 23.039C15.9756 22.922 15.0878 22.6976 14.0147 22.3659C13.5659 22.2488 13.1025 22.161 12.6244 22.1024C12.1464 22.0439 11.683 22.0146 11.2342 22.0146ZM5.29272 19.6732C6.28784 19.2244 7.28296 18.8927 8.27808 18.678C9.2732 18.4634 10.2683 18.3561 11.2634 18.3561C11.8878 18.3561 12.5122 18.4 13.1366 18.4878C13.761 18.5756 14.3756 18.6976 14.9805 18.8537C15.9756 19.1268 16.722 19.3122 17.2195 19.4098C17.7171 19.5073 18.2488 19.5561 18.8147 19.5561H19.3708L19.722 15.9854H4.91223L5.29272 19.6732ZM6.90247 37.7024C5.96589 37.7024 5.14638 37.3902 4.44394 36.7659C3.7415 36.1415 3.3415 35.361 3.24394 34.4244L0.7854 12.2976H23.8488L21.4195 34.4244C21.322 35.361 20.922 36.1415 20.2195 36.7659C19.5171 37.3902 18.6976 37.7024 17.761 37.7024H6.90247ZM11.2342 34.0439H14.0147C15.0878 34.0439 15.922 34.039 16.5171 34.0293C17.1122 34.0195 17.5171 34.0146 17.7317 34.0146H6.93174C7.30247 34.0146 7.89272 34.0195 8.70247 34.0293C9.51223 34.039 10.3561 34.0439 11.2342 34.0439Z" fill="white"/>
<path d="M33.7241 14.9552C33.9607 14.9758 34.2283 14.9964 34.5266 15.017C34.7839 15.0375 35.0823 15.053 35.4218 15.0633C35.7717 15.0736 36.1524 15.0787 36.564 15.0787C37.1402 15.0787 37.7576 15.0633 38.4161 15.0324C39.085 14.9912 39.7435 14.9141 40.3917 14.8009C40.2683 15.0375 40.1602 15.3565 40.0676 15.7578C39.9853 16.1488 39.9133 16.6067 39.8515 17.1315C40.2734 16.2054 40.8342 15.4851 41.5339 14.9707C42.2439 14.4562 43.1391 14.1989 44.2195 14.1989C44.4561 14.1989 44.7545 14.2144 45.1147 14.2452C45.4851 14.2761 45.871 14.379 46.2723 14.5539C46.6839 14.7289 47.0903 15.0015 47.4916 15.372C47.9032 15.7321 48.2685 16.2466 48.5874 16.9154C48.9167 17.5842 49.1791 18.428 49.3746 19.4466C49.5804 20.455 49.6833 21.7001 49.6833 23.1818C49.6833 24.4165 49.5907 25.5227 49.4055 26.5002C49.2305 27.4674 48.9887 28.3215 48.68 29.0623C48.3816 29.8032 48.0266 30.436 47.6151 30.9607C47.2138 31.4752 46.7867 31.8971 46.334 32.2264C45.8916 32.5556 45.4337 32.7923 44.9603 32.9364C44.4973 33.0907 44.0497 33.1679 43.6175 33.1679C43.1133 33.1679 42.6452 33.065 42.213 32.8592C41.7911 32.6534 41.4156 32.3704 41.0863 32.0103C40.757 31.6399 40.4741 31.2026 40.2374 30.6984C40.0007 30.1839 39.8207 29.6231 39.6972 29.016C39.7075 29.4893 39.7281 30.0398 39.7589 30.6675C39.7898 31.2952 39.8258 31.9486 39.867 32.6277C39.9081 33.2965 39.9544 33.9705 40.0059 34.6496C40.0573 35.3287 40.1139 35.9564 40.1757 36.5326C40.2374 37.1191 40.3043 37.6284 40.3763 38.0606C40.4586 38.4928 40.5461 38.8015 40.6387 38.9867C39.8155 38.8426 39.0489 38.7449 38.339 38.6934C37.629 38.6523 36.9859 38.6317 36.4097 38.6317C36.0392 38.6317 35.7048 38.6368 35.4064 38.6471C35.108 38.6574 34.8559 38.6728 34.6501 38.6934C34.4032 38.714 34.1871 38.7346 34.0019 38.7551C34.1048 38.2407 34.2025 37.5667 34.2951 36.7332C34.3877 35.9101 34.4649 34.9789 34.5266 33.9396C34.5987 32.9106 34.6553 31.8045 34.6964 30.6212C34.7376 29.4276 34.7582 28.2083 34.7582 26.9632C34.7582 25.8211 34.7376 24.6841 34.6964 23.5522C34.6656 22.4204 34.609 21.3348 34.5266 20.2955C34.4443 19.2563 34.3363 18.2839 34.2025 17.3784C34.0688 16.4627 33.9093 15.6549 33.7241 14.9552ZM40.0676 22.549V25.0339C40.0676 25.3117 40.0831 25.5947 40.1139 25.8828C40.1448 26.1709 40.2117 26.4333 40.3146 26.67C40.4278 26.9066 40.5872 27.1021 40.793 27.2565C40.9988 27.4005 41.2766 27.4726 41.6265 27.4726C41.8734 27.4726 42.0844 27.3748 42.2593 27.1793C42.4342 26.9838 42.5783 26.7317 42.6915 26.423C42.8047 26.1143 42.8973 25.7696 42.9693 25.3889C43.0413 25.0082 43.0928 24.6326 43.1236 24.2622C43.1545 23.8815 43.1751 23.5316 43.1854 23.2127C43.1957 22.8834 43.2008 22.6261 43.2008 22.4409C43.2008 22.1631 43.1854 21.8236 43.1545 21.4223C43.1339 21.021 43.0773 20.63 42.9847 20.2492C42.8921 19.8685 42.7481 19.5444 42.5526 19.2769C42.3674 19.0093 42.1101 18.8756 41.7808 18.8756C41.4104 18.8756 41.112 19.0093 40.8856 19.2769C40.6593 19.5341 40.4843 19.8531 40.3609 20.2338C40.2477 20.6042 40.1705 21.0055 40.1294 21.4377C40.0882 21.8596 40.0676 22.23 40.0676 22.549ZM64.4386 18.3045C64.4386 19.0762 64.3254 19.8274 64.0991 20.5579C63.883 21.2885 63.4971 21.9367 62.9415 22.5027C62.3858 23.0686 61.6347 23.5213 60.688 23.8609C59.7517 24.2005 58.5581 24.3702 57.1073 24.3702C57.1484 24.8744 57.2513 25.2963 57.4159 25.6359C57.5909 25.9754 57.7967 26.2481 58.0333 26.4539C58.27 26.6597 58.5221 26.814 58.7896 26.9169C59.0571 27.0198 59.3041 27.0918 59.5305 27.133C59.7568 27.1742 59.9472 27.1947 60.1015 27.1947C60.2559 27.1947 60.3331 27.1947 60.3331 27.1947C60.971 27.1227 61.5421 26.9581 62.0463 26.7008C62.2624 26.5979 62.4733 26.4693 62.6791 26.315C62.8849 26.1503 63.0701 25.96 63.2347 25.7439C63.4097 25.5175 63.5486 25.2654 63.6515 24.9876C63.7646 24.6995 63.8315 24.3702 63.8521 23.9998C64.1196 24.6686 64.3049 25.2963 64.4077 25.8828C64.5209 26.459 64.5775 26.9992 64.5775 27.5034C64.5775 28.4295 64.4077 29.2835 64.0682 30.0656C63.7389 30.8373 63.281 31.5061 62.6945 32.072C62.108 32.638 61.4083 33.0753 60.5954 33.384C59.7928 33.7029 58.9182 33.8624 57.9716 33.8624C57.0455 33.8624 56.1503 33.7029 55.286 33.384C54.4319 33.065 53.6705 32.5608 53.0017 31.8714C52.3432 31.1717 51.8132 30.2662 51.4119 29.1549C51.0209 28.0436 50.8254 26.6957 50.8254 25.1111C50.8254 23.3927 51.0724 21.8699 51.5663 20.5425C52.0602 19.2151 52.7239 18.1039 53.5573 17.2087C54.3908 16.3032 55.3529 15.6189 56.4436 15.1559C57.5446 14.6825 58.697 14.4459 59.9009 14.4459C60.4977 14.4459 61.0688 14.5128 61.6141 14.6465C62.1698 14.7803 62.6534 15.0015 63.0649 15.3102C63.4868 15.6189 63.8212 16.0202 64.0682 16.5141C64.3151 16.9977 64.4386 17.5945 64.4386 18.3045ZM57.0455 21.8236C57.3336 21.8133 57.668 21.7567 58.0488 21.6538C58.4295 21.5406 58.7896 21.3862 59.1292 21.1907C59.4687 20.9952 59.7517 20.7534 59.9781 20.4653C60.2147 20.1772 60.3331 19.8479 60.3331 19.4775C60.3331 19.2409 60.2507 19.0505 60.0861 18.9064C59.9215 18.7624 59.7105 18.6904 59.4533 18.6904C59.0932 18.6904 58.769 18.7933 58.4809 18.9991C58.2031 19.2048 57.9613 19.4621 57.7555 19.7708C57.56 20.0795 57.4005 20.419 57.277 20.7894C57.1536 21.1599 57.0764 21.5046 57.0455 21.8236ZM74.9649 36.6406C74.9649 37.3506 74.8003 37.9011 74.471 38.2921C74.1417 38.6831 73.725 38.9712 73.2208 39.1564C72.7166 39.3417 72.161 39.4497 71.5539 39.4806C70.9571 39.5217 70.386 39.5423 69.8407 39.5423C69.8921 39.3262 69.9281 39.105 69.9487 38.8786C69.9796 38.6523 69.995 38.4104 69.995 38.1532C69.995 37.968 69.9847 37.7725 69.9641 37.5667C69.9436 37.3609 69.9024 37.1705 69.8407 36.9956C69.9024 37.0574 70.0002 37.114 70.1339 37.1654C70.278 37.2168 70.4272 37.258 70.5815 37.2889C70.7359 37.3197 70.8851 37.3455 71.0291 37.366C71.1835 37.3866 71.3069 37.3969 71.3996 37.3969C71.6774 37.3969 71.9295 37.33 72.1558 37.1963C72.3822 37.0728 72.4954 36.8464 72.4954 36.5172C72.4954 36.3525 72.4542 36.2085 72.3719 36.085C72.2896 35.9718 72.1816 35.8792 72.0478 35.8072C71.914 35.7351 71.77 35.6785 71.6156 35.6374C71.4613 35.6065 71.3121 35.5911 71.168 35.5911C70.9931 35.5911 70.813 35.6014 70.6278 35.622C70.4529 35.6528 70.278 35.6991 70.1031 35.7609L70.9828 33.2914C70.1185 33.0753 69.3519 32.6894 68.6831 32.1338C68.0246 31.5678 67.4689 30.8939 67.0162 30.1119C66.5634 29.3196 66.2187 28.4501 65.9821 27.5034C65.7557 26.5465 65.6425 25.5793 65.6425 24.6018C65.6425 23.7992 65.7248 22.9863 65.8895 22.1631C66.0644 21.3297 66.3113 20.5271 66.6303 19.7553C66.9596 18.9836 67.3609 18.2633 67.8342 17.5945C68.3075 16.9154 68.8426 16.3237 69.4394 15.8196C70.0362 15.3154 70.6896 14.9192 71.3996 14.6311C72.1198 14.343 72.8864 14.1989 73.6993 14.1989C74.4298 14.1989 75.073 14.2864 75.6286 14.4613C76.1842 14.6362 76.6678 14.8678 77.0794 15.1559C77.491 15.444 77.8306 15.7784 78.0981 16.1591C78.3656 16.5295 78.5817 16.9154 78.7464 17.3167C78.911 17.7077 79.0242 18.0987 79.0859 18.4897C79.1579 18.8807 79.194 19.2409 79.194 19.5701C79.194 19.9714 79.1219 20.3882 78.9779 20.8203C78.8441 21.2525 78.6435 21.6486 78.3759 22.0088C78.1084 22.3586 77.7688 22.6467 77.3573 22.8731C76.9457 23.0995 76.4723 23.2127 75.9373 23.2127C75.4845 23.2127 75.0987 23.1355 74.7797 22.9811C74.4607 22.8268 74.1983 22.6261 73.9925 22.3792C73.7867 22.1322 73.6324 21.8493 73.5295 21.5303C73.4369 21.201 73.3906 20.8666 73.3906 20.5271C73.3906 19.8068 73.5655 19.1843 73.9154 18.6595C73.9668 18.8344 74.0388 18.9682 74.1315 19.0608C74.2343 19.1431 74.327 19.2048 74.4093 19.246C74.5122 19.2872 74.6151 19.3129 74.718 19.3232C75.0164 19.3232 75.2067 19.2563 75.289 19.1225C75.3714 18.9888 75.4228 18.8344 75.4434 18.6595C75.4434 18.4846 75.3765 18.3148 75.2427 18.1502C75.109 17.9855 74.8774 17.9032 74.5482 17.9032C74.4556 17.9032 74.3218 17.9186 74.1469 17.9495C73.9823 17.9701 73.7919 18.0318 73.5758 18.1347C73.37 18.2376 73.1591 18.392 72.943 18.5978C72.7269 18.7933 72.5263 19.0711 72.3411 19.4312C72.1661 19.7811 72.0221 20.2235 71.9089 20.7586C71.7957 21.2833 71.7391 21.9213 71.7391 22.6724C71.7391 23.4442 71.8523 24.0718 72.0787 24.5555C72.305 25.0288 72.5726 25.3992 72.8813 25.6667C73.2002 25.924 73.5347 26.0989 73.8845 26.1915C74.2343 26.2841 74.5327 26.3304 74.7797 26.3304C74.9958 26.3304 75.2685 26.2944 75.5977 26.2224C75.927 26.1401 76.2511 25.996 76.5701 25.7902C76.8994 25.5844 77.1978 25.3015 77.4653 24.9413C77.7328 24.5709 77.9129 24.0976 78.0055 23.5213C78.2833 23.9329 78.5045 24.4268 78.6692 25.0031C78.8338 25.569 78.9161 26.1606 78.9161 26.778C78.9161 27.6423 78.7618 28.4604 78.4531 29.2321C78.1444 30.0038 77.7122 30.6881 77.1566 31.2849C76.601 31.8817 75.9321 32.3704 75.1501 32.7511C74.3784 33.1422 73.5244 33.3737 72.588 33.4457L72.4337 34.1094C72.8144 34.1094 73.1591 34.1711 73.4678 34.2946C73.7765 34.4181 74.0388 34.593 74.2549 34.8194C74.4813 35.0457 74.6562 35.3133 74.7797 35.622C74.9032 35.9306 74.9649 36.2702 74.9649 36.6406ZM96.2645 32.8746C96.0689 32.854 95.8426 32.8335 95.5853 32.8129C95.3693 32.7923 95.1069 32.7769 94.7982 32.7666C94.4998 32.7563 94.1705 32.7511 93.8104 32.7511C93.2959 32.7511 92.73 32.7717 92.1126 32.8129C91.5055 32.854 90.8778 32.9312 90.2296 33.0444L90.2913 28.7073C89.9003 30.2405 89.3241 31.4238 88.5627 32.2572C87.8115 33.0907 86.9266 33.5074 85.9079 33.5074C85.589 33.5074 85.2288 33.4663 84.8275 33.384C84.4262 33.3016 84.0146 33.1422 83.5928 32.9055C83.1812 32.6791 82.7747 32.3601 82.3734 31.9486C81.9824 31.537 81.6326 31.0071 81.3239 30.3588C81.0152 29.7003 80.7683 28.908 80.583 27.9819C80.3978 27.0455 80.3052 25.9394 80.3052 24.6635C80.3052 22.9348 80.4802 21.4583 80.83 20.2338C81.1798 18.9991 81.6274 17.9907 82.1728 17.2087C82.7181 16.4266 83.3201 15.8556 83.9786 15.4954C84.6372 15.1353 85.2803 14.9552 85.9079 14.9552C86.443 14.9552 86.9266 15.0324 87.3588 15.1867C87.8012 15.3308 88.1922 15.5212 88.5318 15.7578C88.8713 15.9842 89.1646 16.2414 89.4116 16.5295C89.6585 16.8176 89.8592 17.1058 90.0135 17.3939C89.9826 17.044 89.9363 16.6736 89.8746 16.2826C89.8129 15.8813 89.7408 15.4697 89.6585 15.0478C90.3273 15.1816 91.0064 15.2691 91.6959 15.3102C92.3853 15.3514 93.0232 15.372 93.6097 15.372C94.3094 15.372 94.8754 15.3565 95.3075 15.3257C95.5545 15.3154 95.7808 15.2999 95.9866 15.2793C95.8734 15.7938 95.7705 16.37 95.6779 17.008C95.5853 17.646 95.503 18.3302 95.431 19.0608C95.3693 19.7811 95.3178 20.5425 95.2766 21.3451C95.2458 22.1374 95.2303 22.9503 95.2303 23.7837C95.2303 25.3375 95.3075 26.8963 95.4619 28.4604C95.6162 30.0244 95.8837 31.4958 96.2645 32.8746ZM89.9209 24.0307V21.5303C89.9209 21.2525 89.9055 20.9695 89.8746 20.6814C89.8437 20.3933 89.7717 20.1309 89.6585 19.8942C89.5556 19.6576 89.4013 19.4672 89.1955 19.3232C88.9897 19.1688 88.7119 19.0917 88.362 19.0917C87.9916 19.0917 87.6829 19.2203 87.4359 19.4775C87.1993 19.7348 87.0038 20.0898 86.8494 20.5425C86.7054 20.9849 86.6025 21.5149 86.5407 22.1322C86.4893 22.7393 86.4636 23.403 86.4636 24.1233C86.4636 24.5349 86.4893 24.9516 86.5407 25.3735C86.6025 25.7954 86.7002 26.1812 86.834 26.5311C86.9678 26.8706 87.1478 27.1484 87.3742 27.3645C87.6006 27.5806 87.8784 27.6886 88.2077 27.6886C88.5781 27.6886 88.8765 27.56 89.1029 27.3028C89.3292 27.0455 89.499 26.7266 89.6122 26.3458C89.7357 25.9651 89.818 25.569 89.8592 25.1574C89.9003 24.7355 89.9209 24.3599 89.9209 24.0307ZM118.243 32.8746C118.048 32.854 117.821 32.8335 117.564 32.8129C117.348 32.7923 117.086 32.7769 116.777 32.7666C116.478 32.7563 116.149 32.7511 115.789 32.7511C115.275 32.7511 114.709 32.7717 114.091 32.8129C113.484 32.854 112.856 32.9312 112.208 33.0444L112.27 28.7073C111.879 30.2405 111.303 31.4238 110.541 32.2572C109.79 33.0907 108.905 33.5074 107.887 33.5074C107.568 33.5074 107.207 33.4663 106.806 33.384C106.405 33.3016 105.993 33.1422 105.571 32.9055C105.16 32.6791 104.753 32.3601 104.352 31.9486C103.961 31.537 103.611 31.0071 103.303 30.3588C102.994 29.7003 102.747 28.908 102.562 27.9819C102.376 27.0455 102.284 25.9394 102.284 24.6635C102.284 22.9348 102.459 21.4583 102.809 20.2338C103.159 18.9991 103.606 17.9907 104.151 17.2087C104.697 16.4266 105.299 15.8556 105.957 15.4954C106.616 15.1353 107.259 14.9552 107.887 14.9552C108.422 14.9552 108.905 15.0324 109.337 15.1867C109.78 15.3308 110.171 15.5212 110.51 15.7578C110.85 15.9842 111.143 16.2414 111.39 16.5295C111.637 16.8176 111.838 17.1058 111.992 17.3939C111.961 17.044 111.915 16.6736 111.853 16.2826C111.792 15.8813 111.719 15.4697 111.637 15.0478C112.306 15.1816 112.985 15.2691 113.675 15.3102C114.364 15.3514 115.002 15.372 115.588 15.372C116.288 15.372 116.854 15.3565 117.286 15.3257C117.533 15.3154 117.759 15.2999 117.965 15.2793C117.852 15.7938 117.749 16.37 117.657 17.008C117.564 17.646 117.482 18.3302 117.41 19.0608C117.348 19.7811 117.296 20.5425 117.255 21.3451C117.224 22.1374 117.209 22.9503 117.209 23.7837C117.209 25.3375 117.286 26.8963 117.441 28.4604C117.595 30.0244 117.862 31.4958 118.243 32.8746ZM111.9 24.0307V21.5303C111.9 21.2525 111.884 20.9695 111.853 20.6814C111.822 20.3933 111.75 20.1309 111.637 19.8942C111.534 19.6576 111.38 19.4672 111.174 19.3232C110.968 19.1688 110.691 19.0917 110.341 19.0917C109.97 19.0917 109.662 19.2203 109.415 19.4775C109.178 19.7348 108.982 20.0898 108.828 20.5425C108.684 20.9849 108.581 21.5149 108.519 22.1322C108.468 22.7393 108.442 23.403 108.442 24.1233C108.442 24.5349 108.468 24.9516 108.519 25.3735C108.581 25.7954 108.679 26.1812 108.813 26.5311C108.946 26.8706 109.126 27.1484 109.353 27.3645C109.579 27.5806 109.857 27.6886 110.186 27.6886C110.557 27.6886 110.855 27.56 111.082 27.3028C111.308 27.0455 111.478 26.7266 111.591 26.3458C111.714 25.9651 111.797 25.569 111.838 25.1574C111.879 24.7355 111.9 24.3599 111.9 24.0307ZM128.615 36.6406C128.615 37.3506 128.45 37.9011 128.121 38.2921C127.792 38.6831 127.375 38.9712 126.871 39.1564C126.367 39.3417 125.811 39.4497 125.204 39.4806C124.607 39.5217 124.036 39.5423 123.491 39.5423C123.542 39.3262 123.578 39.105 123.599 38.8786C123.63 38.6523 123.645 38.4104 123.645 38.1532C123.645 37.968 123.635 37.7725 123.614 37.5667C123.594 37.3609 123.553 37.1705 123.491 36.9956C123.553 37.0574 123.65 37.114 123.784 37.1654C123.928 37.2168 124.077 37.258 124.232 37.2889C124.386 37.3197 124.535 37.3455 124.679 37.366C124.834 37.3866 124.957 37.3969 125.05 37.3969C125.328 37.3969 125.58 37.33 125.806 37.1963C126.032 37.0728 126.146 36.8464 126.146 36.5172C126.146 36.3525 126.104 36.2085 126.022 36.085C125.94 35.9718 125.832 35.8792 125.698 35.8072C125.564 35.7351 125.42 35.6785 125.266 35.6374C125.111 35.6065 124.962 35.5911 124.818 35.5911C124.643 35.5911 124.463 35.6014 124.278 35.622C124.103 35.6528 123.928 35.6991 123.753 35.7609L124.633 33.2914C123.769 33.0753 123.002 32.6894 122.333 32.1338C121.675 31.5678 121.119 30.8939 120.666 30.1119C120.214 29.3196 119.869 28.4501 119.632 27.5034C119.406 26.5465 119.293 25.5793 119.293 24.6018C119.293 23.7992 119.375 22.9863 119.54 22.1631C119.715 21.3297 119.961 20.5271 120.28 19.7553C120.61 18.9836 121.011 18.2633 121.484 17.5945C121.958 16.9154 122.493 16.3237 123.09 15.8196C123.686 15.3154 124.34 14.9192 125.05 14.6311C125.77 14.343 126.537 14.1989 127.349 14.1989C128.08 14.1989 128.723 14.2864 129.279 14.4613C129.834 14.6362 130.318 14.8678 130.73 15.1559C131.141 15.444 131.481 15.7784 131.748 16.1591C132.016 16.5295 132.232 16.9154 132.397 17.3167C132.561 17.7077 132.674 18.0987 132.736 18.4897C132.808 18.8807 132.844 19.2409 132.844 19.5701C132.844 19.9714 132.772 20.3882 132.628 20.8203C132.494 21.2525 132.294 21.6486 132.026 22.0088C131.759 22.3586 131.419 22.6467 131.007 22.8731C130.596 23.0995 130.122 23.2127 129.587 23.2127C129.135 23.2127 128.749 23.1355 128.43 22.9811C128.111 22.8268 127.848 22.6261 127.643 22.3792C127.437 22.1322 127.283 21.8493 127.18 21.5303C127.087 21.201 127.041 20.8666 127.041 20.5271C127.041 19.8068 127.216 19.1843 127.566 18.6595C127.617 18.8344 127.689 18.9682 127.782 19.0608C127.884 19.1431 127.977 19.2048 128.059 19.246C128.162 19.2872 128.265 19.3129 128.368 19.3232C128.667 19.3232 128.857 19.2563 128.939 19.1225C129.022 18.9888 129.073 18.8344 129.094 18.6595C129.094 18.4846 129.027 18.3148 128.893 18.1502C128.759 17.9855 128.528 17.9032 128.198 17.9032C128.106 17.9032 127.972 17.9186 127.797 17.9495C127.632 17.9701 127.442 18.0318 127.226 18.1347C127.02 18.2376 126.809 18.392 126.593 18.5978C126.377 18.7933 126.176 19.0711 125.991 19.4312C125.816 19.7811 125.672 20.2235 125.559 20.7586C125.446 21.2833 125.389 21.9213 125.389 22.6724C125.389 23.4442 125.502 24.0718 125.729 24.5555C125.955 25.0288 126.223 25.3992 126.531 25.6667C126.85 25.924 127.185 26.0989 127.535 26.1915C127.884 26.2841 128.183 26.3304 128.43 26.3304C128.646 26.3304 128.919 26.2944 129.248 26.2224C129.577 26.1401 129.901 25.996 130.22 25.7902C130.55 25.5844 130.848 25.3015 131.115 24.9413C131.383 24.5709 131.563 24.0976 131.656 23.5213C131.933 23.9329 132.155 24.4268 132.319 25.0031C132.484 25.569 132.566 26.1606 132.566 26.778C132.566 27.6423 132.412 28.4604 132.103 29.2321C131.795 30.0038 131.362 30.6881 130.807 31.2849C130.251 31.8817 129.582 32.3704 128.8 32.7511C128.029 33.1422 127.175 33.3737 126.238 33.4457L126.084 34.1094C126.465 34.1094 126.809 34.1711 127.118 34.2946C127.427 34.4181 127.689 34.593 127.905 34.8194C128.131 35.0457 128.306 35.3133 128.43 35.622C128.553 35.9306 128.615 36.2702 128.615 36.6406ZM149.915 32.8746C149.719 32.854 149.493 32.8335 149.235 32.8129C149.019 32.7923 148.757 32.7769 148.448 32.7666C148.15 32.7563 147.821 32.7511 147.461 32.7511C146.946 32.7511 146.38 32.7717 145.763 32.8129C145.156 32.854 144.528 32.9312 143.88 33.0444L143.941 28.7073C143.55 30.2405 142.974 31.4238 142.213 32.2572C141.462 33.0907 140.577 33.5074 139.558 33.5074C139.239 33.5074 138.879 33.4663 138.478 33.384C138.076 33.3016 137.665 33.1422 137.243 32.9055C136.831 32.6791 136.425 32.3601 136.024 31.9486C135.633 31.537 135.283 31.0071 134.974 30.3588C134.665 29.7003 134.418 28.908 134.233 27.9819C134.048 27.0455 133.955 25.9394 133.955 24.6635C133.955 22.9348 134.13 21.4583 134.48 20.2338C134.83 18.9991 135.278 17.9907 135.823 17.2087C136.368 16.4266 136.97 15.8556 137.629 15.4954C138.287 15.1353 138.93 14.9552 139.558 14.9552C140.093 14.9552 140.577 15.0324 141.009 15.1867C141.451 15.3308 141.842 15.5212 142.182 15.7578C142.522 15.9842 142.815 16.2414 143.062 16.5295C143.309 16.8176 143.509 17.1058 143.664 17.3939C143.633 17.044 143.586 16.6736 143.525 16.2826C143.463 15.8813 143.391 15.4697 143.309 15.0478C143.977 15.1816 144.657 15.2691 145.346 15.3102C146.035 15.3514 146.673 15.372 147.26 15.372C147.96 15.372 148.526 15.3565 148.958 15.3257C149.205 15.3154 149.431 15.2999 149.637 15.2793C149.524 15.7938 149.421 16.37 149.328 17.008C149.235 17.646 149.153 18.3302 149.081 19.0608C149.019 19.7811 148.968 20.5425 148.927 21.3451C148.896 22.1374 148.88 22.9503 148.88 23.7837C148.88 25.3375 148.958 26.8963 149.112 28.4604C149.266 30.0244 149.534 31.4958 149.915 32.8746ZM143.571 24.0307V21.5303C143.571 21.2525 143.556 20.9695 143.525 20.6814C143.494 20.3933 143.422 20.1309 143.309 19.8942C143.206 19.6576 143.051 19.4672 142.846 19.3232C142.64 19.1688 142.362 19.0917 142.012 19.0917C141.642 19.0917 141.333 19.2203 141.086 19.4775C140.849 19.7348 140.654 20.0898 140.5 20.5425C140.356 20.9849 140.253 21.5149 140.191 22.1322C140.139 22.7393 140.114 23.403 140.114 24.1233C140.114 24.5349 140.139 24.9516 140.191 25.3735C140.253 25.7954 140.35 26.1812 140.484 26.5311C140.618 26.8706 140.798 27.1484 141.024 27.3645C141.251 27.5806 141.529 27.6886 141.858 27.6886C142.228 27.6886 142.527 27.56 142.753 27.3028C142.979 27.0455 143.149 26.7266 143.262 26.3458C143.386 25.9651 143.468 25.569 143.509 25.1574C143.55 24.7355 143.571 24.3599 143.571 24.0307ZM158.542 32.5968C158.368 32.5865 158.162 32.5711 157.925 32.5505C157.719 32.5402 157.477 32.5299 157.2 32.5196C156.922 32.5093 156.603 32.5042 156.243 32.5042C155.574 32.5042 154.802 32.5351 153.928 32.5968C153.053 32.6482 152.106 32.7511 151.088 32.9055C151.283 32.5145 151.448 32.0257 151.582 31.4392C151.715 30.8424 151.823 30.2096 151.906 29.5408C151.998 28.8617 152.065 28.1774 152.106 27.488C152.158 26.7986 152.194 26.1658 152.214 25.5896C152.235 25.0133 152.245 24.5246 152.245 24.1233C152.255 23.722 152.261 23.4699 152.261 23.367C152.24 22.0293 152.194 20.7792 152.122 19.6164C152.091 19.1225 152.05 18.6235 151.998 18.1193C151.957 17.6151 151.906 17.1418 151.844 16.6993C151.782 16.2466 151.71 15.8453 151.628 15.4954C151.556 15.1353 151.468 14.8523 151.365 14.6465C152.199 14.7906 152.971 14.8883 153.681 14.9398C154.391 14.9912 155.034 15.017 155.61 15.017C155.98 15.017 156.31 15.0118 156.598 15.0015C156.896 14.9809 157.148 14.9604 157.354 14.9398C157.601 14.9192 157.817 14.8935 158.002 14.8626C157.817 15.7887 157.663 16.9051 157.539 18.2119C157.426 19.5187 157.369 20.9181 157.369 22.4101C157.369 23.2641 157.39 24.1284 157.431 25.0031C157.472 25.8777 157.539 26.7523 157.632 27.6269C157.724 28.4912 157.843 29.3453 157.987 30.189C158.141 31.0225 158.326 31.8251 158.542 32.5968ZM156.181 13.9057L153.11 12.532C153.737 11.6265 154.324 10.7571 154.869 9.92359C155.095 9.57375 155.327 9.21361 155.564 8.84318C155.811 8.47275 156.037 8.11776 156.243 7.7782C156.459 7.42836 156.654 7.09909 156.829 6.7904C157.004 6.48171 157.143 6.21933 157.246 6.00324C157.565 6.2399 157.951 6.49715 158.404 6.77497C158.867 7.05279 159.314 7.31003 159.746 7.54669C160.24 7.82451 160.755 8.10747 161.29 8.39558L156.181 13.9057Z" fill="white"/>
</svg>
